<svg role="img" aria-labelledby="doctium-logo-title doctium-logo-desc" viewBox="0 0 500 467" xmlns="http://www.w3.org/2000/svg">
  <title id="doctium-logo-title">Doctium</title>
  <desc id="doctium-logo-desc">Doctium telemedicine app logo with medical cross logomark, D-shaped care loop, wordmark, and tagline.</desc>
  <g id="doctium-logomark">
    <path id="doctium-d-loop" fill="#133157" d="M238 65 A111 111 0 0 1 238 287 L238 243 A67 67 0 0 0 238 109 Z"/>
    <path id="doctium-cross" fill="#8BBBE9" d="M149 109 H193 V154 H238 V199 H193 V245 H149 Z"/>
  </g>
  <path id="doctium-wordmark" fill="#133157" d="M126.697 324.468 C127.509 324.468 128.272 324.622 128.986 324.93 C129.7 325.238 130.323 325.651 130.855 326.169 C131.387 326.687 131.807 327.303 132.115 328.017 C132.423 328.731 132.577 329.494 132.577 330.306 L132.577 348.87 C132.577 349.682 132.423 350.445 132.115 351.159 C131.807 351.873 131.387 352.489 130.855 353.007 C130.323 353.525 129.7 353.938 128.986 354.246 C128.272 354.554 127.509 354.708 126.697 354.708 L102.337 354.708 L102.337 324.468 Z M126.991 330.306 C126.991 330.11 126.893 330.012 126.697 330.012 L108.175 330.012 C107.979 330.012 107.881 330.11 107.881 330.306 L107.881 348.87 C107.881 349.066 107.979 349.164 108.175 349.164 L126.697 349.164 C126.893 349.164 126.991 349.066 126.991 348.87 Z M175.099 324.468 C175.883 324.468 176.632 324.622 177.346 324.93 C178.06 325.238 178.683 325.651 179.215 326.169 C179.747 326.687 180.167 327.303 180.475 328.017 C180.783 328.731 180.937 329.494 180.937 330.306 L180.937 348.87 C180.937 349.682 180.783 350.445 180.475 351.159 C180.167 351.873 179.747 352.489 179.215 353.007 C178.683 353.525 178.06 353.938 177.346 354.246 C176.632 354.554 175.883 354.708 175.099 354.708 L156.535 354.708 C155.723 354.708 154.96 354.554 154.246 354.246 C153.532 353.938 152.916 353.525 152.398 353.007 C151.88 352.489 151.467 351.873 151.159 351.159 C150.851 350.445 150.697 349.682 150.697 348.87 L150.697 330.306 C150.697 329.494 150.851 328.731 151.159 328.017 C151.467 327.303 151.88 326.687 152.398 326.169 C152.916 325.651 153.532 325.238 154.246 324.93 C154.96 324.622 155.723 324.468 156.535 324.468 Z M175.099 349.164 C175.267 349.164 175.351 349.066 175.351 348.87 L175.351 330.306 C175.351 330.11 175.267 330.012 175.099 330.012 L156.535 330.012 C156.339 330.012 156.241 330.11 156.241 330.306 L156.241 348.87 C156.241 349.066 156.339 349.164 156.535 349.164 Z M204.895 330.012 C204.699 330.012 204.601 330.11 204.601 330.306 L204.601 348.87 C204.601 349.066 204.699 349.164 204.895 349.164 L229.213 349.164 L229.213 354.708 L204.895 354.708 C204.083 354.708 203.32 354.554 202.606 354.246 C201.892 353.938 201.276 353.525 200.758 353.007 C200.24 352.489 199.827 351.873 199.519 351.159 C199.211 350.445 199.057 349.682 199.057 348.87 L199.057 330.306 C199.057 329.494 199.211 328.731 199.519 328.017 C199.827 327.303 200.24 326.687 200.758 326.169 C201.276 325.651 201.892 325.238 202.606 324.93 C203.32 324.622 204.083 324.468 204.895 324.468 L229.213 324.468 L229.213 330.012 Z M275.809 324.468 L275.809 330.012 L263.503 330.012 L263.503 354.708 L257.917 354.708 L257.917 330.012 L245.569 330.012 L245.569 324.468 Z M292.501 324.468 L298.045 324.468 L298.045 354.708 L292.501 354.708 Z M339.769 324.468 L345.355 324.468 L345.355 348.87 C345.355 349.682 345.201 350.445 344.893 351.159 C344.585 351.873 344.165 352.489 343.633 353.007 C343.101 353.525 342.478 353.938 341.764 354.246 C341.05 354.554 340.301 354.708 339.517 354.708 L320.953 354.708 C320.141 354.708 319.378 354.554 318.664 354.246 C317.95 353.938 317.334 353.525 316.816 353.007 C316.298 352.489 315.885 351.873 315.577 351.159 C315.269 350.445 315.115 349.682 315.115 348.87 L315.115 324.468 L320.659 324.468 L320.659 348.87 C320.659 349.066 320.757 349.164 320.953 349.164 L339.517 349.164 C339.685 349.164 339.769 349.066 339.769 348.87 Z M391.489 324.468 L397.579 324.468 L397.579 354.708 L391.993 354.708 L391.993 332.532 L380.527 346.182 L369.019 332.532 L369.019 354.708 L363.475 354.708 L363.475 324.468 L369.523 324.468 L380.527 337.572 Z"/>
  <path id="doctium-tagline" fill="#8BBBE9" d="M137.17 380.618 L133.529 385.557 L133.529 388.538 L132.638 388.538 L132.638 385.557 C132.044 384.743 131.439 383.919 130.823 383.087 C130.207 382.255 129.598 381.432 128.997 380.618 L130.02 380.618 L133.089 384.49 C133.573 383.866 134.079 383.221 134.607 382.554 C135.135 381.886 135.641 381.241 136.125 380.618 Z M145.134 380.618 C145.318 380.618 145.49 380.652 145.651 380.722 C145.813 380.792 145.952 380.885 146.069 381.003 C146.187 381.12 146.28 381.259 146.35 381.421 C146.42 381.582 146.454 381.754 146.454 381.938 L146.454 387.218 C146.454 387.401 146.42 387.573 146.35 387.735 C146.28 387.896 146.187 388.035 146.069 388.153 C145.952 388.27 145.813 388.363 145.651 388.433 C145.49 388.503 145.318 388.538 145.134 388.538 L139.854 388.538 C139.671 388.538 139.499 388.503 139.337 388.433 C139.176 388.363 139.037 388.27 138.919 388.153 C138.802 388.035 138.709 387.896 138.639 387.735 C138.569 387.573 138.534 387.401 138.534 387.218 L138.534 381.938 C138.534 381.754 138.569 381.582 138.639 381.421 C138.709 381.259 138.802 381.12 138.919 381.003 C139.037 380.885 139.176 380.792 139.337 380.722 C139.499 380.652 139.671 380.618 139.854 380.618 Z M145.134 387.647 C145.252 387.647 145.353 387.604 145.437 387.52 C145.521 387.436 145.563 387.335 145.563 387.218 L145.563 381.938 C145.563 381.82 145.521 381.719 145.437 381.635 C145.353 381.551 145.252 381.509 145.134 381.509 L139.854 381.509 C139.737 381.509 139.636 381.551 139.552 381.635 C139.468 381.719 139.425 381.82 139.425 381.938 L139.425 387.218 C139.425 387.335 139.468 387.436 139.552 387.52 C139.636 387.604 139.737 387.647 139.854 387.647 Z M154.947 380.618 L155.838 380.618 L155.838 387.218 C155.838 387.401 155.803 387.573 155.733 387.735 C155.664 387.896 155.57 388.035 155.453 388.153 C155.335 388.27 155.196 388.363 155.035 388.433 C154.873 388.503 154.701 388.538 154.518 388.538 L149.238 388.538 C149.054 388.538 148.882 388.503 148.721 388.433 C148.559 388.363 148.42 388.27 148.303 388.153 C148.185 388.035 148.092 387.896 148.022 387.735 C147.953 387.573 147.918 387.401 147.918 387.218 L147.918 380.618 L148.809 380.618 L148.809 387.218 C148.809 387.335 148.851 387.436 148.935 387.52 C149.02 387.604 149.12 387.647 149.238 387.647 L154.518 387.647 C154.635 387.647 154.736 387.604 154.82 387.52 C154.905 387.436 154.947 387.335 154.947 387.218 Z M165.232 384.27 C165.232 384.453 165.197 384.623 165.128 384.781 C165.058 384.939 164.964 385.078 164.847 385.199 C164.73 385.32 164.59 385.415 164.429 385.485 C164.268 385.555 164.095 385.59 163.912 385.59 L162.702 385.59 L165.188 388.538 L164.011 388.538 L161.536 385.59 L158.632 385.59 C158.573 385.59 158.507 385.586 158.434 385.579 C158.361 385.571 158.284 385.56 158.203 385.546 L158.203 388.538 L157.312 388.538 L157.312 380.629 L163.912 380.629 C164.095 380.629 164.268 380.663 164.429 380.733 C164.59 380.803 164.73 380.898 164.847 381.019 C164.964 381.14 165.058 381.279 165.128 381.437 C165.197 381.595 165.232 381.765 165.232 381.949 Z M163.912 384.688 C164.029 384.688 164.128 384.647 164.209 384.567 C164.29 384.486 164.33 384.387 164.33 384.27 L164.33 381.949 C164.33 381.831 164.29 381.73 164.209 381.646 C164.128 381.562 164.029 381.52 163.912 381.52 L158.632 381.52 C158.515 381.52 158.414 381.562 158.33 381.646 C158.245 381.73 158.203 381.831 158.203 381.949 L158.203 384.27 C158.203 384.387 158.245 384.486 158.33 384.567 C158.414 384.647 158.515 384.688 158.632 384.688 Z M176.374 380.618 C176.557 380.618 176.729 380.652 176.891 380.722 C177.052 380.792 177.191 380.885 177.309 381.003 C177.426 381.12 177.52 381.259 177.589 381.421 C177.659 381.582 177.694 381.754 177.694 381.938 L177.694 387.218 C177.694 387.401 177.659 387.573 177.589 387.735 C177.52 387.896 177.426 388.035 177.309 388.153 C177.191 388.27 177.052 388.363 176.891 388.433 C176.729 388.503 176.557 388.538 176.374 388.538 L169.774 388.538 L169.774 380.618 Z M176.803 381.938 C176.803 381.82 176.761 381.719 176.676 381.635 C176.592 381.551 176.491 381.509 176.374 381.509 L171.094 381.509 C170.976 381.509 170.876 381.551 170.791 381.635 C170.707 381.719 170.665 381.82 170.665 381.938 L170.665 387.218 C170.665 387.335 170.707 387.436 170.791 387.52 C170.876 387.604 170.976 387.647 171.094 387.647 L176.374 387.647 C176.491 387.647 176.592 387.604 176.676 387.52 C176.761 387.436 176.803 387.335 176.803 387.218 Z M185.777 380.618 C185.961 380.618 186.133 380.652 186.294 380.722 C186.456 380.792 186.595 380.885 186.712 381.003 C186.83 381.12 186.923 381.259 186.993 381.421 C187.063 381.582 187.097 381.754 187.097 381.938 L187.097 387.218 C187.097 387.401 187.063 387.573 186.993 387.735 C186.923 387.896 186.83 388.035 186.712 388.153 C186.595 388.27 186.456 388.363 186.294 388.433 C186.133 388.503 185.961 388.538 185.777 388.538 L180.497 388.538 C180.314 388.538 180.142 388.503 179.98 388.433 C179.819 388.363 179.68 388.27 179.562 388.153 C179.445 388.035 179.352 387.896 179.282 387.735 C179.212 387.573 179.177 387.401 179.177 387.218 L179.177 381.938 C179.177 381.754 179.212 381.582 179.282 381.421 C179.352 381.259 179.445 381.12 179.562 381.003 C179.68 380.885 179.819 380.792 179.98 380.722 C180.142 380.652 180.314 380.618 180.497 380.618 Z M185.777 387.647 C185.895 387.647 185.996 387.604 186.08 387.52 C186.164 387.436 186.206 387.335 186.206 387.218 L186.206 381.938 C186.206 381.82 186.164 381.719 186.08 381.635 C185.996 381.551 185.895 381.509 185.777 381.509 L180.497 381.509 C180.38 381.509 180.279 381.551 180.195 381.635 C180.111 381.719 180.068 381.82 180.068 381.938 L180.068 387.218 C180.068 387.335 180.111 387.436 180.195 387.52 C180.279 387.604 180.38 387.647 180.497 387.647 Z M189.903 381.509 C189.785 381.509 189.685 381.551 189.6 381.635 C189.516 381.719 189.474 381.82 189.474 381.938 L189.474 387.218 C189.474 387.335 189.516 387.436 189.6 387.52 C189.685 387.604 189.785 387.647 189.903 387.647 L196.481 387.647 L196.481 388.538 L189.903 388.538 C189.719 388.538 189.547 388.503 189.386 388.433 C189.224 388.363 189.085 388.27 188.968 388.153 C188.85 388.035 188.757 387.896 188.687 387.735 C188.618 387.573 188.583 387.401 188.583 387.218 L188.583 381.938 C188.583 381.754 188.618 381.582 188.687 381.421 C188.757 381.259 188.85 381.12 188.968 381.003 C189.085 380.885 189.224 380.792 189.386 380.722 C189.547 380.652 189.719 380.618 189.903 380.618 L196.481 380.618 L196.481 381.509 Z M205.42 380.618 L205.42 381.509 L201.911 381.509 L201.911 388.538 L201.02 388.538 L201.02 381.509 L197.5 381.509 L197.5 380.618 Z M213.073 380.618 C213.257 380.618 213.429 380.652 213.59 380.722 C213.752 380.792 213.891 380.885 214.008 381.003 C214.126 381.12 214.219 381.259 214.289 381.421 C214.359 381.582 214.393 381.754 214.393 381.938 L214.393 387.218 C214.393 387.401 214.359 387.573 214.289 387.735 C214.219 387.896 214.126 388.035 214.008 388.153 C213.891 388.27 213.752 388.363 213.59 388.433 C213.429 388.503 213.257 388.538 213.073 388.538 L207.793 388.538 C207.61 388.538 207.438 388.503 207.276 388.433 C207.115 388.363 206.976 388.27 206.858 388.153 C206.741 388.035 206.648 387.896 206.578 387.735 C206.508 387.573 206.473 387.401 206.473 387.218 L206.473 381.938 C206.473 381.754 206.508 381.582 206.578 381.421 C206.648 381.259 206.741 381.12 206.858 381.003 C206.976 380.885 207.115 380.792 207.276 380.722 C207.438 380.652 207.61 380.618 207.793 380.618 Z M213.073 387.647 C213.191 387.647 213.292 387.604 213.376 387.52 C213.46 387.436 213.502 387.335 213.502 387.218 L213.502 381.938 C213.502 381.82 213.46 381.719 213.376 381.635 C213.292 381.551 213.191 381.509 213.073 381.509 L207.793 381.509 C207.676 381.509 207.575 381.551 207.491 381.635 C207.407 381.719 207.364 381.82 207.364 381.938 L207.364 387.218 C207.364 387.335 207.407 387.436 207.491 387.52 C207.575 387.604 207.676 387.647 207.793 387.647 Z M223.788 384.27 C223.788 384.453 223.753 384.623 223.683 384.781 C223.614 384.939 223.52 385.078 223.403 385.199 C223.285 385.32 223.146 385.415 222.985 385.485 C222.823 385.555 222.651 385.59 222.468 385.59 L221.258 385.59 L223.744 388.538 L222.567 388.538 L220.092 385.59 L217.188 385.59 C217.129 385.59 217.063 385.586 216.99 385.579 C216.916 385.571 216.839 385.56 216.759 385.546 L216.759 388.538 L215.868 388.538 L215.868 380.629 L222.468 380.629 C222.651 380.629 222.823 380.663 222.985 380.733 C223.146 380.803 223.285 380.898 223.403 381.019 C223.52 381.14 223.614 381.279 223.683 381.437 C223.753 381.595 223.788 381.765 223.788 381.949 Z M222.468 384.688 C222.585 384.688 222.684 384.647 222.765 384.567 C222.845 384.486 222.886 384.387 222.886 384.27 L222.886 381.949 C222.886 381.831 222.845 381.73 222.765 381.646 C222.684 381.562 222.585 381.52 222.468 381.52 L217.188 381.52 C217.07 381.52 216.97 381.562 216.885 381.646 C216.801 381.73 216.759 381.831 216.759 381.949 L216.759 384.27 C216.759 384.387 216.801 384.486 216.885 384.567 C216.97 384.647 217.07 384.688 217.188 384.688 Z M226.104 387.636 L226.104 388.714 C226.104 389.014 226.02 389.278 225.851 389.506 C225.683 389.733 225.466 389.891 225.202 389.979 L225.202 387.636 Z M237.115 380.618 C237.299 380.618 237.471 380.652 237.632 380.722 C237.794 380.792 237.933 380.885 238.05 381.003 C238.168 381.12 238.261 381.259 238.331 381.421 C238.401 381.582 238.435 381.754 238.435 381.938 L238.435 388.538 L237.544 388.538 L237.544 385.645 L231.406 385.645 L231.406 388.538 L230.515 388.538 L230.515 381.938 C230.515 381.754 230.55 381.582 230.62 381.421 C230.69 381.259 230.783 381.12 230.9 381.003 C231.018 380.885 231.157 380.792 231.318 380.722 C231.48 380.652 231.652 380.618 231.835 380.618 Z M237.544 384.754 L237.544 381.938 C237.544 381.82 237.502 381.719 237.418 381.635 C237.334 381.551 237.233 381.509 237.115 381.509 L231.835 381.509 C231.718 381.509 231.617 381.551 231.533 381.635 C231.449 381.719 231.406 381.82 231.406 381.938 L231.406 384.754 Z M246.992 380.618 L247.883 380.618 L247.883 388.538 L246.662 388.538 L240.854 381.63 L240.854 388.538 L239.963 388.538 L239.963 380.618 L241.184 380.618 L246.992 387.526 Z M257.133 380.618 L253.492 385.557 L253.492 388.538 L252.601 388.538 L252.601 385.557 C252.007 384.743 251.402 383.919 250.786 383.087 C250.17 382.255 249.561 381.432 248.96 380.618 L249.983 380.618 L253.052 384.49 C253.536 383.866 254.042 383.221 254.57 382.554 C255.098 381.886 255.604 381.241 256.088 380.618 Z M266.044 380.618 L266.044 381.509 L262.535 381.509 L262.535 388.538 L261.644 388.538 L261.644 381.509 L258.124 381.509 L258.124 380.618 Z M267.13 380.618 L268.021 380.618 L268.021 388.538 L267.13 388.538 Z M277.41 380.618 L278.631 380.618 L278.631 388.538 L277.74 388.538 L277.74 381.63 L274.121 385.931 L270.502 381.63 L270.502 388.538 L269.611 388.538 L269.611 380.618 L270.832 380.618 L274.121 384.534 Z M287.377 381.509 L281.041 381.509 L281.041 384.127 L286.134 384.127 L286.134 385.029 L281.041 385.029 L281.041 387.647 L287.377 387.647 L287.377 388.538 L280.15 388.538 L280.15 380.618 L287.377 380.618 Z M289.687 387.636 L289.687 388.714 C289.687 389.014 289.603 389.278 289.434 389.506 C289.266 389.733 289.049 389.891 288.785 389.979 L288.785 387.636 Z M300.698 380.618 C300.882 380.618 301.054 380.652 301.215 380.722 C301.377 380.792 301.516 380.885 301.633 381.003 C301.751 381.12 301.844 381.259 301.914 381.421 C301.984 381.582 302.018 381.754 302.018 381.938 L302.018 388.538 L301.127 388.538 L301.127 385.645 L294.989 385.645 L294.989 388.538 L294.098 388.538 L294.098 381.938 C294.098 381.754 294.133 381.582 294.203 381.421 C294.273 381.259 294.366 381.12 294.483 381.003 C294.601 380.885 294.74 380.792 294.901 380.722 C295.063 380.652 295.235 380.618 295.418 380.618 Z M301.127 384.754 L301.127 381.938 C301.127 381.82 301.085 381.719 301.001 381.635 C300.917 381.551 300.816 381.509 300.698 381.509 L295.418 381.509 C295.301 381.509 295.2 381.551 295.116 381.635 C295.032 381.719 294.989 381.82 294.989 381.938 L294.989 384.754 Z M310.575 380.618 L311.466 380.618 L311.466 388.538 L310.245 388.538 L304.437 381.63 L304.437 388.538 L303.546 388.538 L303.546 380.618 L304.767 380.618 L310.575 387.526 Z M320.716 380.618 L317.075 385.557 L317.075 388.538 L316.184 388.538 L316.184 385.557 C315.59 384.743 314.985 383.919 314.369 383.087 C313.753 382.255 313.144 381.432 312.543 380.618 L313.566 380.618 L316.635 384.49 C317.119 383.866 317.625 383.221 318.153 382.554 C318.681 381.886 319.187 381.241 319.671 380.618 Z M334.115 380.618 L331.233 388.538 L330.452 388.538 L327.988 381.773 L325.524 388.538 L324.754 388.538 L321.872 380.618 L322.818 380.618 L325.139 386.976 C325.315 386.492 325.5 385.98 325.694 385.441 C325.889 384.902 326.087 384.358 326.288 383.808 C326.49 383.258 326.69 382.711 326.888 382.169 C327.086 381.626 327.273 381.109 327.449 380.618 L328.527 380.618 L330.848 386.976 C331.024 386.492 331.209 385.98 331.403 385.441 C331.598 384.902 331.794 384.358 331.992 383.808 C332.19 383.258 332.388 382.711 332.586 382.169 C332.784 381.626 332.971 381.109 333.147 380.618 Z M343.59 380.618 L343.59 388.538 L342.688 388.538 L342.688 385.029 L336.363 385.029 L336.363 388.538 L335.472 388.538 L335.472 380.618 L336.363 380.618 L336.363 384.127 L342.688 384.127 L342.688 380.618 Z M352.351 381.509 L346.015 381.509 L346.015 384.127 L351.108 384.127 L351.108 385.029 L346.015 385.029 L346.015 387.647 L352.351 387.647 L352.351 388.538 L345.124 388.538 L345.124 380.618 L352.351 380.618 Z M361.691 384.27 C361.691 384.453 361.656 384.623 361.586 384.781 C361.516 384.939 361.423 385.078 361.306 385.199 C361.188 385.32 361.049 385.415 360.888 385.485 C360.726 385.555 360.554 385.59 360.371 385.59 L359.161 385.59 L361.647 388.538 L360.47 388.538 L357.995 385.59 L355.091 385.59 C355.032 385.59 354.966 385.586 354.893 385.579 C354.819 385.571 354.742 385.56 354.661 385.546 L354.661 388.538 L353.771 388.538 L353.771 380.629 L360.371 380.629 C360.554 380.629 360.726 380.663 360.888 380.733 C361.049 380.803 361.188 380.898 361.306 381.019 C361.423 381.14 361.516 381.279 361.586 381.437 C361.656 381.595 361.691 381.765 361.691 381.949 Z M360.371 384.688 C360.488 384.688 360.587 384.647 360.668 384.567 C360.748 384.486 360.789 384.387 360.789 384.27 L360.789 381.949 C360.789 381.831 360.748 381.73 360.668 381.646 C360.587 381.562 360.488 381.52 360.371 381.52 L355.091 381.52 C354.973 381.52 354.872 381.562 354.788 381.646 C354.704 381.73 354.661 381.831 354.661 381.949 L354.661 384.27 C354.661 384.387 354.704 384.486 354.788 384.567 C354.872 384.647 354.973 384.688 355.091 384.688 Z M370.376 381.509 L364.04 381.509 L364.04 384.127 L369.133 384.127 L369.133 385.029 L364.04 385.029 L364.04 387.647 L370.376 387.647 L370.376 388.538 L363.149 388.538 L363.149 380.618 L370.376 380.618 Z"/>
</svg>